<svg width="960" height="960" viewBox="0 0 960 960" fill="none" xmlns="http://www.w3.org/2000/svg">
<g clip-path="url(#clip0_348_1428)">
<path d="M886.07 442.042C918.17 463.482 929.33 503.102 911.01 530.542C892.69 557.982 851.8 562.862 819.7 541.422C787.6 519.982 776.44 480.362 794.77 452.922C813.1 425.482 853.97 420.612 886.07 442.042Z" fill="#171717"/>
<path d="M743.76 189.762L750.12 452.352L683.6 406.212C694.02 351.002 687.63 284.462 679.75 238.832L743.76 189.762Z" fill="#171717"/>
<path d="M693.809 700.662L650.239 695.352L672.259 616.902C685.399 642.941 692.751 671.515 693.809 700.662Z" fill="#171717"/>
<path d="M592.579 541.832C606.697 547.26 619.803 555.021 631.349 564.792C628.689 567.592 598.349 599.252 560.399 621.512L592.579 541.832Z" fill="#171717"/>
<path d="M426.29 617.662C451.73 567.392 497.38 533.882 549.47 533.882C564.204 533.886 578.814 536.58 592.58 541.832L560.4 621.512C536.74 635.392 510.12 645.632 485.41 642.942C461.63 640.352 442.15 631.3 426.29 617.662Z" fill="url(#paint0_linear_348_1428)"/>
<path d="M595.529 505.292C457.879 516.942 502.089 376.852 512.939 329.532C515.276 319.316 516.791 308.929 517.469 298.472L583.469 312.622L566.939 325.292L655.299 386.582L608.099 503.422C603.954 504.317 599.756 504.941 595.529 505.292Z" fill="#171717"/>
<path d="M395.239 272.251C410.389 252.001 433.979 234.551 468.999 232.121C512.659 229.081 519.369 267.111 517.469 298.471L395.239 272.251Z" fill="#171717"/>
<path d="M549.469 885.412C486.129 885.412 432.299 835.862 412.779 766.882C569.219 800.802 684.599 762.562 687.589 761.552C669.389 833.292 614.429 885.412 549.469 885.412Z" fill="#171717"/>
<path d="M374.239 316.822C357.359 385.912 351.189 553.112 426.289 617.662C423.449 623.282 420.866 629.102 418.539 635.122L260.939 528.592L341.409 260.7L395.239 272.25C385.373 285.58 378.237 300.727 374.239 316.822Z" fill="#171717"/>
<path d="M517.469 298.472C519.369 267.112 512.659 229.082 468.999 232.122C433.979 234.552 410.389 252.002 395.239 272.252L341.409 260.7L260.939 528.59L418.539 635.12C409.464 658.913 404.853 684.175 404.939 709.64C404.905 728.99 407.543 748.252 412.779 766.88C405.319 765.27 397.766 763.487 390.119 761.53C368.309 755.94 350.539 751.41 335.929 747.72L350.939 732.94L233.439 563.12C237.279 435.17 251.709 266.93 299.059 200.35C353.609 123.64 429.289 90.2303 510.819 98.7003C592.349 107.17 653.999 146.7 668.589 189.76C671.369 197.96 675.749 215.71 679.749 238.83L583.469 312.62L517.469 298.472Z" fill="url(#paint1_linear_348_1428)"/>
<path d="M40.5996 660.942L205.88 523.292L233.44 563.122C230.73 653.562 233.31 723.872 233.31 723.872C272.57 732.902 252.12 726.552 335.92 747.722L214.35 867.412L40.5996 660.942Z" fill="#171717"/>
<path d="M418.539 635.122L525.649 707.532L560.399 621.512L592.579 541.832L608.099 503.422L655.299 386.582L677.059 332.702L583.469 312.622L517.469 298.472L395.239 272.252L341.409 260.702L260.939 528.592L418.539 635.122Z" stroke="#171717" stroke-width="3" stroke-linecap="round" stroke-linejoin="round"/>
<path d="M335.93 747.722L350.94 732.942L233.44 563.122L205.88 523.292L40.5996 660.942L214.35 867.412L335.92 747.722" stroke="#171717" stroke-width="3" stroke-linecap="round" stroke-linejoin="round"/>
<path d="M679.749 238.832L743.759 189.762L750.119 452.352L683.599 406.212L655.299 386.582L566.939 325.292L583.469 312.622L679.749 238.832Z" stroke="#171717" stroke-width="3" stroke-linecap="round" stroke-linejoin="round"/>
<path d="M693.809 700.662L650.239 695.352L672.259 616.902L686.939 564.592L775.879 584.352L750.119 707.532L693.809 700.662Z" stroke="#171717" stroke-width="3" stroke-linecap="round" stroke-linejoin="round"/>
<path d="M702.469 155.171L673.529 106.471L712.349 90.9414L740.589 131.881L702.469 155.171Z" stroke="#171717" stroke-width="3" stroke-linecap="round" stroke-linejoin="round"/>
<path d="M687.649 761.532C687.63 761.541 687.61 761.548 687.589 761.552C684.599 762.562 569.219 800.802 412.779 766.882C405.319 765.272 397.766 763.489 390.119 761.532C368.309 755.942 350.539 751.412 335.929 747.722H335.919C252.119 726.552 272.569 732.902 233.309 723.872C233.309 723.872 230.729 653.562 233.439 563.122C237.279 435.172 251.709 266.932 299.059 200.352C353.609 123.642 429.289 90.2322 510.819 98.7022C592.349 107.172 653.999 146.702 668.589 189.762C671.369 197.962 675.749 215.712 679.749 238.832C687.629 284.462 694.019 351.002 683.599 406.212C674.529 454.282 652.729 493.772 608.099 503.422C603.954 504.317 599.755 504.942 595.529 505.292C457.879 516.942 502.089 376.852 512.939 329.532C515.276 319.316 516.791 308.93 517.469 298.472C519.369 267.112 512.659 229.082 468.999 232.122C433.979 234.552 410.389 252.002 395.239 272.252C385.373 285.582 378.237 300.728 374.239 316.822C357.359 385.912 351.189 553.112 426.289 617.662C442.149 631.302 461.629 640.352 485.409 642.942C510.119 645.632 536.739 635.392 560.399 621.512C598.349 599.252 628.689 567.592 631.349 564.792C631.469 564.662 631.529 564.592 631.529 564.592" stroke="#171717" stroke-width="3" stroke-linecap="round" stroke-linejoin="round"/>
<path d="M693.81 700.662C693.94 703.632 694 706.632 694 709.642C694.026 727.144 691.873 744.582 687.59 761.552C669.39 833.292 614.43 885.412 549.47 885.412C486.13 885.412 432.3 835.862 412.78 766.882C407.544 748.254 404.905 728.992 404.94 709.642C404.853 684.177 409.464 658.915 418.54 635.122C420.86 629.112 423.443 623.292 426.29 617.662C451.73 567.392 497.38 533.882 549.47 533.882C564.204 533.886 578.813 536.58 592.58 541.832C606.698 547.26 619.803 555.021 631.35 564.792C648.335 579.251 662.246 596.97 672.26 616.902C685.4 642.941 692.751 671.514 693.81 700.662V700.662Z" stroke="#171717" stroke-width="3" stroke-linecap="round" stroke-linejoin="round"/>
<path d="M911.01 530.542C892.68 557.982 851.8 562.862 819.7 541.422C787.6 519.982 776.44 480.362 794.77 452.922C813.1 425.482 853.97 420.612 886.07 442.042C918.17 463.472 929.33 503.1 911.01 530.542Z" stroke="#171717" stroke-width="3" stroke-linecap="round" stroke-linejoin="round"/>
<path d="M698.91 516.292C712.082 516.292 722.76 505.614 722.76 492.442C722.76 479.27 712.082 468.592 698.91 468.592C685.738 468.592 675.06 479.27 675.06 492.442C675.06 505.614 685.738 516.292 698.91 516.292Z" stroke="#171717" stroke-width="3" stroke-linecap="round" stroke-linejoin="round"/>
<path d="M852.89 684.232L877.18 709.642L884.59 675.762L852.89 684.232Z" stroke="#171717" stroke-width="3" stroke-linecap="round" stroke-linejoin="round"/>
<path d="M378.541 783.909C368.628 785.725 359.03 794.103 359.818 804.15C360.345 810.874 365.163 816.37 369.718 821.339C374.273 826.308 379.071 831.839 379.53 838.569C379.989 845.299 373.421 852.627 367.143 850.169C363.706 848.82 361.665 844.933 361.866 841.246C362.045 839.404 362.594 837.618 363.481 835.994C364.368 834.37 365.574 832.941 367.027 831.795C374.841 825.228 387.527 826.584 394.962 833.578C402.397 840.572 404.77 851.897 402.493 861.846C400.216 871.795 393.838 880.429 386.151 887.146" stroke="#171717" stroke-width="3" stroke-linecap="round" stroke-linejoin="round"/>
<path d="M165.29 444.129C171.981 444.042 178.532 442.202 184.289 438.793C190.047 435.383 194.809 430.523 198.102 424.698C201.394 418.872 203.101 412.286 203.053 405.594C203.004 398.903 201.202 392.342 197.825 386.565C194.752 381.308 190.19 376.665 184.405 374.765C178.62 372.865 171.561 374.228 167.78 379.001C163.999 383.774 164.815 391.88 170.073 394.951C175.255 397.977 182.408 395.066 185.511 389.931C188.614 384.796 188.423 378.267 186.865 372.473C185.307 366.679 182.52 361.291 180.635 355.594C177.225 345.44 176.956 334.495 179.862 324.186C181.824 317.46 185.533 310.847 191.65 307.43C197.767 304.013 206.574 304.899 210.504 310.7C214.434 316.501 210.304 326.335 203.304 326.156" stroke="#171717" stroke-width="3" stroke-linecap="round" stroke-linejoin="round"/>
<path d="M428.588 375.412L469.529 340.824" stroke="#171717" stroke-width="3" stroke-linecap="round" stroke-linejoin="round"/>
<path d="M408.823 433.999L459.646 390.234" stroke="#171717" stroke-width="3" stroke-linecap="round" stroke-linejoin="round"/>
<path d="M800.588 762.941L822 741.294" stroke="#171717" stroke-width="3" stroke-linecap="round" stroke-linejoin="round"/>
<path d="M799.882 744.824L821.294 762" stroke="#171717" stroke-width="3" stroke-linecap="round" stroke-linejoin="round"/>
<path d="M312.588 805.059L319.882 829.294" stroke="#171717" stroke-width="3" stroke-linecap="round" stroke-linejoin="round"/>
<path d="M303.646 820.588L326.705 811.412" stroke="#171717" stroke-width="3" stroke-linecap="round" stroke-linejoin="round"/>
<path d="M150.47 340.118L129.646 335.882" stroke="#171717" stroke-width="3" stroke-linecap="round" stroke-linejoin="round"/>
<path d="M143.058 326.706L138.117 349.647" stroke="#171717" stroke-width="3" stroke-linecap="round" stroke-linejoin="round"/>
<path d="M319.529 141.412L305.059 104.353" stroke="#171717" stroke-width="3" stroke-linecap="round" stroke-linejoin="round"/>
<path d="M293.059 134.706L329.412 114.588" stroke="#171717" stroke-width="3" stroke-linecap="round" stroke-linejoin="round"/>
<path d="M266.941 87.4119L243.294 78.5879" stroke="#171717" stroke-width="3" stroke-linecap="round" stroke-linejoin="round"/>
<path d="M258.471 72.5879L250.706 96.9409" stroke="#171717" stroke-width="3" stroke-linecap="round" stroke-linejoin="round"/>
<path d="M785.412 333.412L805.176 312.235" stroke="#171717" stroke-width="3" stroke-linecap="round" stroke-linejoin="round"/>
<path d="M784.353 312.588L805.529 332.706" stroke="#171717" stroke-width="3" stroke-linecap="round" stroke-linejoin="round"/>
<path d="M775.176 390.234L799.882 415.999" stroke="#171717" stroke-width="3" stroke-linecap="round" stroke-linejoin="round"/>
<path d="M797.059 389.529L779.412 415.294" stroke="#171717" stroke-width="3" stroke-linecap="round" stroke-linejoin="round"/>
<g opacity="0.1">
<path d="M607.109 502.655C609.457 502.346 611.909 502.455 614.202 501.755C616.811 500.795 619.324 499.592 621.708 498.161C626.263 495.762 630.619 493.004 634.736 489.911C642.893 483.797 650.247 476.679 656.624 468.724C669.533 452.465 678.603 433.387 681.738 412.783C682.365 408.658 680.697 404.467 676.338 403.269C672.68 402.263 667.456 404.516 666.823 408.669C662.871 436.161 648.508 461.084 626.701 478.285C623.14 481.125 619.42 483.758 615.559 486.173C613.487 487.463 611.22 488.506 609.184 489.84C607.148 491.174 605.621 493.055 603.766 494.573C600.766 497.033 603.105 503.184 607.114 502.655H607.109Z" fill="#171717"/>
</g>
<g opacity="0.1">
<path d="M682.986 767.021C689.258 760.744 691.013 749.621 692.554 741.221C694.369 731.63 695.369 721.902 695.544 712.141C695.903 685.183 690.547 658.454 679.827 633.716C669.107 608.978 653.268 586.792 633.352 568.619C626.105 561.995 615.268 572.772 622.546 579.424C646.453 601.086 664.088 628.783 673.6 659.608C678.753 676.639 681.3 694.351 681.156 712.143C681.147 721.279 680.535 730.404 679.324 739.459C678.164 747.716 674.985 757.076 676.645 765.345C677.219 768.205 681.08 768.933 682.991 767.021H682.986Z" fill="#171717"/>
</g>
<g opacity="0.1">
<path d="M392.475 271.614C384.694 280.896 380.975 293.034 377.201 304.414C373.559 315.414 370.416 326.589 367.847 337.888C352.172 408.609 356.81 482.321 381.226 550.52C390.074 574.772 400.501 599.02 421.938 614.682C426.029 617.67 432.393 615.374 434.765 611.319C437.542 606.57 435.502 601.487 431.401 598.492C415.042 586.542 405.976 566.699 399.067 548.298C375.283 484.72 369.613 415.788 382.689 349.179C385.154 336.663 388.077 324.25 391.717 312.021C395.303 299.973 400.806 288.131 402.077 275.587C402.557 270.855 395.504 267.996 392.477 271.61L392.475 271.614Z" fill="#171717"/>
</g>
<g opacity="0.1">
<path d="M328.116 750.361C335.363 750.681 342.416 743.577 347.54 739.136C350.046 736.965 350.799 731.999 348.817 729.236C339.491 716.246 329.703 703.588 320.41 690.567C311.117 677.546 302.558 664.076 293.578 650.814C275.628 624.3 258.487 597.265 242.156 569.709C235.943 559.235 219.547 568.762 225.804 579.267C242.35 607.045 259.717 634.312 277.904 661.067C286.937 674.338 296.72 687.02 306.216 699.953C315.907 713.153 325.579 726.494 335.993 739.135V727.585C331.103 732.427 323.993 738.678 323.76 746.002C323.779 747.152 324.245 748.25 325.059 749.063C325.872 749.877 326.97 750.342 328.12 750.361H328.116Z" fill="#171717"/>
</g>
</g>
<defs>
<linearGradient id="paint0_linear_348_1428" x1="509.435" y1="533.882" x2="509.435" y2="643.373" gradientUnits="userSpaceOnUse">
<stop stop-color="#FFDD33"/>
<stop offset="1" stop-color="#E89A00"/>
</linearGradient>
<linearGradient id="paint1_linear_348_1428" x1="456.594" y1="97.417" x2="456.594" y2="766.88" gradientUnits="userSpaceOnUse">
<stop stop-color="#FFDD33"/>
<stop offset="1" stop-color="#E89A00"/>
</linearGradient>
<clipPath id="clip0_348_1428">
<rect width="883" height="818" fill="white" transform="translate(39 71)"/>
</clipPath>
</defs>
</svg>
