<svg width="960" height="960" viewBox="0 0 960 960" fill="none" xmlns="http://www.w3.org/2000/svg">
<g clip-path="url(#clip0_348_1429)">
<path d="M695.748 198.863L680.916 285.529C666.276 289.662 650.524 294.67 633.66 300.553C619.66 305.447 606.455 310.25 594.047 314.961V260.951L519.887 254.167L530.412 173.167L695.748 198.863Z" fill="#171717"/>
<path d="M621.993 783.557C558.712 791.615 499.627 753.317 475.393 693.888L594.048 710.56V535.428C598.948 533.612 603.956 532.099 609.042 530.898C629.505 526.086 657.572 524.198 687.761 520.849C716.232 544.183 736.423 578.892 741.579 619.425C751.871 700.359 698.337 773.851 621.993 783.557Z" fill="#171717"/>
<path d="M584.7 490.457C530.266 497.382 487.428 536.732 471.059 588.093C449.817 586.893 427.433 574.626 412.459 551.412L445.259 528.573L402.684 433.454C414.836 410.423 443.115 383.681 507.175 352.096L504.131 375.496L594.053 388.953V489.608C590.943 489.769 587.829 490.063 584.7 490.457Z" fill="url(#paint0_linear_348_1429)"/>
<path d="M519.886 254.166L507.168 352.099C443.108 383.684 414.829 410.426 402.677 433.457L313.988 235.32L519.886 254.166Z" fill="#171717"/>
<path d="M374.925 679.764L266.471 498.323V359.517L385.3 570.329L412.456 551.412C427.43 574.626 449.814 586.89 471.056 588.093C460.163 622.792 461.697 660.202 475.394 693.893L374.925 679.764Z" fill="#171717"/>
<path d="M266.471 230.974V359.517L162.637 175.306L250.415 93.2998L313.989 235.321L266.471 230.974Z" fill="#171717"/>
<path d="M196.891 381.912L266.471 498.323V664.523L374.925 679.76L422.767 759.804L288.956 820.824L130.081 514.742C150.019 503.722 163.648 481.428 163.648 455.718C163.71 441.654 159.489 427.905 151.548 416.297L196.891 381.912Z" fill="url(#paint1_linear_348_1429)"/>
<path d="M180.835 346.586L79.1348 295.205L145.51 243.824L180.835 346.586Z" fill="url(#paint2_linear_348_1429)"/>
<path d="M101.742 522.092C67.5588 522.092 39.8418 492.378 39.8418 455.718C39.8418 419.058 67.5548 389.353 101.742 389.353C122.165 389.353 140.273 399.953 151.542 416.297L99.4728 455.778L130.073 514.742C121.408 519.562 111.657 522.092 101.742 522.092V522.092Z" fill="#171717"/>
<path d="M130.081 514.742L288.956 820.824L422.767 759.808L374.925 679.764L266.471 498.323L196.891 381.912L151.546 416.297L99.4766 455.778L130.081 514.742Z" stroke="#171717" stroke-width="3" stroke-linecap="round" stroke-linejoin="round"/>
<path d="M266.471 359.517L385.298 570.329L412.454 551.412L445.253 528.573L402.678 433.454L313.989 235.321L250.415 93.2998L162.637 175.306L266.471 359.517Z" stroke="#171717" stroke-width="3" stroke-linecap="round" stroke-linejoin="round"/>
<path d="M594.047 388.949L504.125 375.492L507.169 352.096L519.887 254.167L530.412 173.162L695.748 198.863L680.916 285.529L661.494 399.049L594.047 388.949Z" stroke="#171717" stroke-width="3" stroke-linecap="round" stroke-linejoin="round"/>
<path d="M475.392 693.888L594.047 710.56V535.428V489.608V388.949V314.961V260.951L519.887 254.167L313.989 235.321L266.471 230.974V359.517V498.323V664.527L374.925 679.764L475.392 693.888Z" stroke="#171717" stroke-width="3" stroke-linecap="round" stroke-linejoin="round"/>
<path d="M145.51 243.824L180.835 346.586L79.1348 295.205L145.51 243.824Z" stroke="#171717" stroke-width="3" stroke-linecap="round" stroke-linejoin="round"/>
<path d="M140.15 645.257L194.746 690.228L129.979 716.99L140.15 645.257Z" stroke="#171717" stroke-width="3" stroke-linecap="round" stroke-linejoin="round"/>
<path d="M455.959 179.593L483.692 200.996V145.328L455.959 179.593Z" stroke="#171717" stroke-width="3" stroke-linecap="round" stroke-linejoin="round"/>
<path d="M687.761 520.848C716.232 544.182 736.423 578.891 741.579 619.424C751.871 700.358 698.337 773.85 621.993 783.556C558.712 791.614 499.627 753.316 475.393 693.887C461.696 660.196 460.162 622.787 471.055 588.087C487.424 536.726 530.262 497.376 584.696 490.451C587.83 490.057 590.944 489.763 594.048 489.602C628.767 487.655 661.727 499.484 687.761 520.848Z" stroke="#171717" stroke-width="3" stroke-linecap="round" stroke-linejoin="round"/>
<path d="M151.546 416.299C159.487 427.907 163.707 441.657 163.646 455.72C163.646 481.43 150.017 503.72 130.079 514.744C121.412 519.566 111.658 522.096 101.74 522.094C67.5569 522.094 39.8398 492.38 39.8398 455.72C39.8398 419.06 67.5529 389.355 101.74 389.355C122.165 389.352 140.273 399.948 151.546 416.299Z" stroke="#171717" stroke-width="3" stroke-linecap="round" stroke-linejoin="round"/>
<path d="M687.759 520.849C731.78 515.965 780.34 507.958 816.536 483.198C856.999 455.515 871.728 413.77 874.529 381.912C878.138 340.772 891.838 225.868 680.915 285.529C666.275 289.662 650.523 294.67 633.659 300.553C619.659 305.447 606.455 310.25 594.046 314.961C559.519 328.044 530.887 340.4 507.168 352.1C443.108 383.685 414.829 410.427 402.677 433.458C390.868 455.843 394.305 474.709 394.932 491.108C395.893 515.969 402.555 536.089 412.453 551.416C427.427 574.63 449.811 586.894 471.053 588.097C475.276 588.333 479.513 588.12 483.691 587.46C525.326 580.787 554.555 549.971 594.046 535.432C598.947 533.617 603.954 532.104 609.04 530.902C629.499 526.086 657.57 524.2 687.759 520.849Z" stroke="#171717" stroke-width="3" stroke-linecap="round" stroke-linejoin="round"/>
<path d="M760.094 112.584C751.89 129.548 750.672 149.054 756.7 166.908C759.934 176.334 765.832 185.635 775.129 189.224C788.329 194.324 804.968 183.633 805.821 169.507C806.148 164.107 803.99 158.07 799.065 155.836C791.836 152.557 783.613 159.414 781.209 166.979C777.068 180.01 784.846 195.63 797.741 200.179C805.693 202.979 814.421 201.879 822.812 202.705C831.203 203.531 840.47 207.405 842.93 215.474C846.013 225.574 836.939 234.964 828.767 241.657" stroke="#171717" stroke-width="3" stroke-linecap="round" stroke-linejoin="round"/>
<path d="M795.274 580.817C794.766 591.157 803.783 600.551 814.032 602.008C824.281 603.465 834.759 597.955 840.856 589.588C846.953 581.221 849.073 570.45 848.491 560.114C848.025 551.822 845.938 543.62 846.291 535.322C846.644 527.024 850.138 518.107 857.613 514.487C866.997 509.942 878.743 515.93 884.185 524.824C887.521 530.276 889.16 537.067 887.247 543.165C885.334 549.263 879.287 554.209 872.924 553.609C867.533 553.1 863.03 548.854 860.884 543.883C858.738 538.912 858.584 533.315 858.933 527.911C859.87 513.395 864.706 498.383 875.716 488.876C886.726 479.369 904.829 477.35 915.574 487.155L919.846 483.615" stroke="#171717" stroke-width="3" stroke-linecap="round" stroke-linejoin="round"/>
<path d="M78.0635 611.006L101.971 631.702" stroke="#171717" stroke-width="3" stroke-linecap="round" stroke-linejoin="round"/>
<path d="M79.4922 632.416L99.8312 608.508" stroke="#171717" stroke-width="3" stroke-linecap="round" stroke-linejoin="round"/>
<path d="M66.2891 721.625L92.3381 742.679" stroke="#171717" stroke-width="3" stroke-linecap="round" stroke-linejoin="round"/>
<path d="M86.985 716.986L67.002 747.317" stroke="#171717" stroke-width="3" stroke-linecap="round" stroke-linejoin="round"/>
<path d="M443.467 839.024L474.512 863.289" stroke="#171717" stroke-width="3" stroke-linecap="round" stroke-linejoin="round"/>
<path d="M470.585 831.174L448.105 867.572" stroke="#171717" stroke-width="3" stroke-linecap="round" stroke-linejoin="round"/>
<path d="M498.061 782.644L485.572 759.807" stroke="#171717" stroke-width="3" stroke-linecap="round" stroke-linejoin="round"/>
<path d="M480.934 775.864L504.485 766.587" stroke="#171717" stroke-width="3" stroke-linecap="round" stroke-linejoin="round"/>
<path d="M795.902 416.529L740.236 380.37" stroke="#171717" stroke-width="3" stroke-linecap="round" stroke-linejoin="round"/>
<path d="M816.836 399.401L789.24 383.7" stroke="#171717" stroke-width="3" stroke-linecap="round" stroke-linejoin="round"/>
<path d="M119.813 187.439L134.801 153.896" stroke="#171717" stroke-width="3" stroke-linecap="round" stroke-linejoin="round"/>
<path d="M106.255 154.611L132.661 113.217" stroke="#171717" stroke-width="3" stroke-linecap="round" stroke-linejoin="round"/>
<path d="M398.861 213.845L377.451 182.443" stroke="#171717" stroke-width="3" stroke-linecap="round" stroke-linejoin="round"/>
<path d="M369.602 210.277L401.003 191.008" stroke="#171717" stroke-width="3" stroke-linecap="round" stroke-linejoin="round"/>
<path d="M421.52 138.018L425.267 118.035" stroke="#171717" stroke-width="3" stroke-linecap="round" stroke-linejoin="round"/>
<path d="M410.814 124.101L432.76 130.524" stroke="#171717" stroke-width="3" stroke-linecap="round" stroke-linejoin="round"/>
<g opacity="0.1">
<path d="M268.734 350.3C265.821 359.139 274.588 369.52 278.693 376.836C283.668 385.701 288.753 394.504 293.693 403.388C303.426 420.876 312.898 438.507 322.108 456.279C340.694 492.14 357.982 528.612 373.971 565.694C375.771 569.858 382.426 571.274 385.99 568.845C403.02 557.237 419.956 545.503 436.798 533.645C440.848 530.791 442.75 525.615 440.098 521.075C437.748 517.058 431.612 514.918 427.527 517.775C410.627 529.611 393.827 541.578 377.127 553.675L389.146 556.826C372.252 520.226 354.51 484.021 335.92 448.209C326.681 430.455 317.181 412.841 307.42 395.367C302.464 386.495 297.51 377.609 292.32 368.867C288.088 361.742 283.231 348.909 274.156 347.218C273.03 346.941 271.842 347.106 270.834 347.678C269.826 348.25 269.075 349.187 268.736 350.295L268.734 350.3Z" fill="#171717"/>
</g>
<g opacity="0.1">
<path d="M475.212 587.065C511.871 586.975 543.029 561.947 574.383 545.989C610.118 527.801 649.808 523.365 689.11 518.923C726.438 514.704 764.361 509.752 798.494 493.048C830.816 477.23 856.227 449.925 868.694 416.092C883.167 376.823 878.338 331.247 855.942 295.945C851.37 288.737 840.129 295.205 844.442 302.664C862.095 333.15 867.049 370.04 856.079 403.686C845.671 435.607 822.694 461.761 792.979 477.069C761.59 493.236 725.563 497.911 690.926 501.798C652.437 506.118 613.538 510.122 577.781 526.066C560.062 533.966 543.681 544.461 526.71 553.776C509.91 563 492.231 570.457 473.579 575C466.814 576.649 468.314 587.079 475.212 587.062V587.065Z" fill="#171717"/>
</g>
<g opacity="0.1">
<path d="M128.929 519.847C146.87 558.99 169.37 596.129 190.071 633.866C210.804 671.662 231.371 709.548 251.771 747.524C263.295 768.976 274.765 790.457 286.182 811.967C288.509 816.351 294.205 817.284 298.322 815.151C335.419 796.107 373.566 779.181 412.579 764.456C417.023 762.756 420.079 758.52 418.734 753.615C417.545 749.287 412.395 745.846 407.894 747.461C367.242 762.05 327.671 779.907 289.365 799.827L301.505 803.011C260.972 726.919 219.78 651.182 177.927 575.8C166.088 554.482 154.378 533.168 140.748 512.933C135.768 505.539 125.281 511.882 128.929 519.842V519.847Z" fill="#171717"/>
</g>
</g>
<defs>
<linearGradient id="paint0_linear_348_1429" x1="498.368" y1="352.096" x2="498.368" y2="588.093" gradientUnits="userSpaceOnUse">
<stop stop-color="#24E9C1"/>
<stop offset="1" stop-color="#0EABA6"/>
</linearGradient>
<linearGradient id="paint1_linear_348_1429" x1="276.424" y1="381.912" x2="276.424" y2="820.824" gradientUnits="userSpaceOnUse">
<stop stop-color="#24E9C1"/>
<stop offset="1" stop-color="#0EABA6"/>
</linearGradient>
<linearGradient id="paint2_linear_348_1429" x1="129.985" y1="243.824" x2="129.985" y2="346.586" gradientUnits="userSpaceOnUse">
<stop stop-color="#24E9C1"/>
<stop offset="1" stop-color="#0EABA6"/>
</linearGradient>
<clipPath id="clip0_348_1429">
<rect width="884" height="779" fill="white" transform="translate(38 91)"/>
</clipPath>
</defs>
</svg>
