<svg width="960" height="960" viewBox="0 0 960 960" fill="none" xmlns="http://www.w3.org/2000/svg">
<g clip-path="url(#clip0_348_1427)">
<path d="M628.72 331.967C672.42 325.757 717.89 331.847 753.35 359.417C774.3 375.697 787.43 395.927 793.85 418.787L644.42 449.901C645.51 416.051 641.11 377.421 628.94 333.471L628.72 331.967Z" fill="#171717"/>
<path d="M644.42 449.9L793.85 418.79C815.44 495.56 761.35 601.99 673.48 688.23C655.34 650.809 623.448 621.84 584.46 607.37C614.56 573.156 642.09 522.5 644.42 449.9Z" fill="url(#paint0_linear_348_1427)"/>
<path d="M753.349 359.416C717.889 331.846 672.419 325.756 628.719 331.966C600.317 336.126 572.791 344.921 547.239 358C545.319 358.98 543.429 359.97 541.549 360.97L512.319 248.55L499.939 200.94L765.709 114.12L878.999 401.056L793.849 418.786C787.429 395.926 774.299 375.7 753.349 359.416Z" fill="url(#paint1_linear_348_1427)"/>
<path d="M528.71 597.426C547.736 597.404 566.614 600.77 584.46 607.366C552.7 643.476 518.07 661.266 507.24 667.176C481.35 681.296 430.06 699.646 397.59 674.236C396.229 673.152 394.991 671.921 393.9 670.566C408.491 648.102 428.468 629.642 452.013 616.868C475.558 604.094 501.923 597.411 528.71 597.426V597.426Z" fill="#171717"/>
<path d="M528.709 918.957C499.875 918.968 471.569 911.222 446.757 896.531C421.946 881.84 401.544 860.744 387.689 835.457C490.029 825.937 595.179 765.097 673.479 688.227C685.311 712.738 690.729 739.852 689.224 767.028C687.719 794.205 679.341 820.555 664.875 843.61C650.409 866.666 630.328 885.672 606.513 898.85C582.698 912.028 555.928 918.946 528.709 918.957V918.957Z" fill="#171717"/>
<path d="M377.57 605.206C377.2 559.936 391.78 499.766 437.22 444.286L529.59 515.416L377.57 605.206Z" fill="url(#paint2_linear_348_1427)"/>
<path d="M301.76 339.967L437.22 444.287C391.78 499.767 377.2 559.937 377.57 605.207L161.21 733.007C142.38 694.167 133.48 639.977 144.88 564.117C160.31 461.437 228.22 389.207 301.76 339.967Z" fill="#171717"/>
<path d="M348.859 73.0463C408.079 33.4963 475.699 30.8163 499.899 67.0563C524.099 103.296 495.709 164.736 436.489 204.276C377.269 243.816 309.649 246.496 285.459 210.256C261.269 174.016 289.639 112.586 348.859 73.0463Z" fill="#171717"/>
<path d="M393.9 670.566C378.078 694.931 369.147 723.124 368.054 752.155C366.961 781.185 373.746 809.97 387.69 835.456C365.122 837.651 342.37 837.083 319.94 833.766C293.68 829.766 202.98 819.206 161.21 733.006L377.57 605.206C377.81 635.846 384.9 659.646 393.9 670.566Z" fill="url(#paint3_linear_348_1427)"/>
<path d="M515.2 247.887C515.2 247.887 514.21 248.097 512.32 248.547C494.19 252.827 393.58 278.467 301.76 339.967C228.22 389.207 160.31 461.437 144.88 564.117C133.48 639.977 142.38 694.167 161.21 733.007C202.98 819.207 293.68 829.767 319.94 833.767C342.371 837.084 365.122 837.651 387.69 835.457C490.03 825.937 595.18 765.097 673.48 688.227C761.35 601.987 815.44 495.557 793.85 418.787C787.43 395.927 774.3 375.697 753.35 359.417C717.89 331.847 672.42 325.757 628.72 331.967C600.318 336.126 572.792 344.921 547.24 358.001C545.32 358.981 543.43 359.971 541.55 360.971C495.9 385.241 461.98 414.071 437.22 444.291C391.78 499.771 377.2 559.941 377.57 605.211C377.81 635.851 384.9 659.651 393.9 670.571C394.991 671.926 396.229 673.157 397.59 674.241C430.06 699.651 481.35 681.301 507.24 667.181C518.07 661.271 552.7 643.481 584.46 607.371C614.56 573.161 642.09 522.501 644.42 449.901C645.51 416.051 641.11 377.421 628.94 333.471" stroke="#171717" stroke-width="3" stroke-linecap="round" stroke-linejoin="round"/>
<path d="M793.849 418.786L878.999 401.056L765.709 114.116L499.939 200.936L512.319 248.546L541.549 360.966L568.769 465.646L644.419 449.896L793.849 418.786Z" stroke="#171717" stroke-width="3" stroke-linecap="round" stroke-linejoin="round"/>
<path d="M437.22 444.286L529.59 515.416L377.57 605.206L161.21 733.006L97.5898 770.586L120.67 411.566L126.55 320.036L133.59 210.466L301.76 339.966L437.22 444.286Z" stroke="#171717" stroke-width="3" stroke-linecap="round" stroke-linejoin="round"/>
<path d="M436.489 204.277C377.279 243.817 309.649 246.497 285.459 210.257C261.269 174.017 289.639 112.587 348.859 73.0467C408.079 33.5067 475.699 30.8167 499.899 67.0567C524.099 103.297 495.709 164.737 436.489 204.277Z" stroke="#171717" stroke-width="3" stroke-linecap="round" stroke-linejoin="round"/>
<path d="M126.55 320.037C147.88 321.947 164.65 341.687 164.65 365.767C164.65 391.107 146.07 411.647 123.16 411.647C122.32 411.647 121.49 411.617 120.67 411.567C98.9199 410.137 81.6699 390.177 81.6699 365.767C81.6699 340.427 100.25 319.887 123.16 319.887C124.3 319.887 125.43 319.937 126.55 320.037Z" stroke="#171717" stroke-width="3" stroke-linecap="round" stroke-linejoin="round"/>
<path d="M673.48 688.226C689.684 721.801 693.704 759.969 684.849 796.183C675.994 832.398 654.816 864.404 624.947 886.714C595.078 909.024 558.377 920.248 521.139 918.461C483.9 916.675 448.443 901.989 420.846 876.922C393.25 851.855 375.233 817.969 369.886 781.073C364.538 744.177 372.193 706.57 391.537 674.7C410.882 642.83 440.71 618.682 475.91 606.396C511.109 594.111 549.486 594.454 584.46 607.366C623.519 621.718 655.45 650.722 673.48 688.226V688.226Z" stroke="#171717" stroke-width="3" stroke-linecap="round" stroke-linejoin="round"/>
<path d="M244.77 905.057L280.77 858.467H205.59L244.77 905.057Z" stroke="#171717" stroke-width="3" stroke-linecap="round" stroke-linejoin="round"/>
<g opacity="0.1">
<path d="M623.058 333.05C599.058 335.517 574.935 344.35 553.094 354.329C530.868 364.667 509.999 377.703 490.961 393.143C452.085 424.283 421.906 465.26 402.651 511.117C397.305 523.804 392.829 536.84 389.257 550.135C387.412 557.035 385.814 564.025 384.392 571.029C382.868 578.529 381.235 585.804 382.347 593.442C382.847 596.861 386.878 599.326 390.077 599.326C393.903 599.326 396.428 596.747 397.806 593.442C400.106 587.92 400.317 581.59 401.332 575.699C402.361 569.725 403.619 563.802 405.108 557.93C407.926 546.718 411.396 535.68 415.5 524.871C440.592 459.101 489.028 404.875 551.56 372.545C562.95 366.563 574.698 361.289 586.738 356.754C599.193 352.125 612.022 348.933 624.666 344.927C630.825 342.976 630.157 332.32 623.058 333.05Z" fill="#171717"/>
</g>
<g opacity="0.1">
<path d="M670.154 692.554C675.043 685.832 663.082 673.018 659.188 667.992C653.043 659.807 646.401 652.007 639.3 644.636C632.302 637.584 624.869 630.976 617.046 624.851C609.133 618.651 600.618 611.414 591.453 607.177C587.708 605.446 583.384 605.805 580.764 609.311C578.53 612.301 578.132 617.597 581.412 620.191C589.39 626.502 598.394 631.491 606.441 637.781C614.489 644.079 622.178 650.823 629.471 657.981C636.608 664.981 643.432 671.973 649.871 679.637C653.223 683.626 664.021 700.988 670.152 692.557L670.154 692.554Z" fill="#171717"/>
</g>
<g opacity="0.1">
<path d="M301.18 340.831C295.694 334.476 288.867 329.344 282.411 324.001C275.921 318.629 269.436 313.247 262.879 307.957C249.504 297.165 236.037 286.485 222.479 275.915C195.593 254.867 168.445 234.161 141.035 213.796C137.252 210.986 131.298 213.175 129.106 216.924C126.521 221.342 128.422 226.064 132.233 228.853C159.455 248.766 186.439 268.999 213.185 289.553C226.523 299.808 239.745 310.207 252.99 320.579C259.642 325.788 266.321 330.962 272.962 336.184C279.538 341.355 285.97 346.974 293.281 351.064C299.947 354.793 305.931 346.338 301.181 340.831H301.18Z" fill="#171717"/>
</g>
</g>
<defs>
<linearGradient id="paint0_linear_348_1427" x1="691.529" y1="418.79" x2="691.529" y2="688.23" gradientUnits="userSpaceOnUse">
<stop stop-color="#FFA3C9"/>
<stop offset="1" stop-color="#EF5FB3"/>
</linearGradient>
<linearGradient id="paint1_linear_348_1427" x1="689.469" y1="114.12" x2="689.469" y2="418.786" gradientUnits="userSpaceOnUse">
<stop stop-color="#FFA3C9"/>
<stop offset="1" stop-color="#EF5FB3"/>
</linearGradient>
<linearGradient id="paint2_linear_348_1427" x1="453.577" y1="444.286" x2="453.577" y2="605.206" gradientUnits="userSpaceOnUse">
<stop stop-color="#FFA3C9"/>
<stop offset="1" stop-color="#EF5FB3"/>
</linearGradient>
<linearGradient id="paint3_linear_348_1427" x1="277.555" y1="605.206" x2="277.555" y2="836.765" gradientUnits="userSpaceOnUse">
<stop stop-color="#FFA3C9"/>
<stop offset="1" stop-color="#EF5FB3"/>
</linearGradient>
<clipPath id="clip0_348_1427">
<rect width="801" height="881" fill="white" transform="translate(80 40)"/>
</clipPath>
</defs>
</svg>
