<svg width="960" height="960" viewBox="0 0 960 960" fill="none" xmlns="http://www.w3.org/2000/svg">
<g clip-path="url(#clip0_348_1426)">
<path d="M754.027 402.675C716.627 331.75 651.359 269.49 579.299 232.882L588.157 197.982L798.489 257.353L754.027 402.675Z" fill="url(#paint0_linear_348_1426)"/>
<path d="M754.027 402.676L743.76 436.222L656.507 411.777C649.291 397.777 637.889 384.463 621.42 372.189C597.663 354.483 574.951 341.946 553.82 333.22L579.3 232.883C651.359 269.491 716.628 331.751 754.027 402.676Z" fill="#171717"/>
<path d="M763.29 621.157C580.17 966.123 470.367 877.107 476.479 768.419L616.058 678.024L579.572 613.1C636.156 552.716 689.172 475.152 656.507 411.778L743.76 436.223L754.027 402.677C790.857 472.516 800.658 550.748 763.29 621.157Z" fill="url(#paint1_linear_348_1426)"/>
<path d="M542.012 379.7L656.512 411.778C689.178 475.152 636.161 552.715 579.577 613.099L470.114 418.334L408.523 475.86C395.685 455.101 377.373 438.282 355.6 427.252C347.153 422.999 338.267 419.682 329.1 417.36C336.053 342.037 411.092 323.895 411.092 323.895C411.092 323.895 469.977 298.567 553.824 333.219L542.012 379.7Z" fill="#171717"/>
<path d="M459.229 197.207C425.517 193.557 391.424 195.904 358.529 204.139L379.965 117.86L459.229 197.207Z" fill="url(#paint2_linear_348_1426)"/>
<path d="M496.941 234.95L337.041 290.632L358.527 204.139C391.422 195.904 425.514 193.557 459.227 197.207L496.941 234.95Z" fill="#171717"/>
<path d="M344.531 535.626C341.47 513.319 336.088 486.278 330.605 452.671C328.602 441.013 328.095 429.147 329.095 417.36C338.262 419.682 347.148 422.999 355.595 427.252C377.369 438.282 395.682 455.101 408.52 475.86L344.531 535.626Z" fill="url(#paint3_linear_348_1426)"/>
<path d="M408.523 475.86C438.999 524.427 441.888 593.396 410.623 655.544C392.633 691.31 366.09 719.334 335.898 737.536L276.689 644.136C289.012 642.767 300.852 638.574 311.289 631.882C347.065 609.251 351.048 583.143 344.532 535.63L408.523 475.86Z" fill="#171717"/>
<path d="M330.605 452.671C336.088 486.278 341.47 513.319 344.531 535.626L258.707 615.784L276.687 644.132C233.116 648.905 188.856 617.639 168.566 578.051C159.546 560.451 153.536 531.116 152.411 496.88C194.765 433.232 266.177 401.397 329.095 417.36C328.095 429.147 328.603 441.013 330.605 452.671V452.671Z" fill="#171717"/>
<path d="M408.523 475.86C438.999 524.427 441.888 593.396 410.623 655.544C392.633 691.31 366.09 719.334 335.898 737.536C291.455 764.354 239.098 769.867 194.514 747.436C119.636 709.764 94.9982 607.552 139.48 519.136C143.338 511.463 147.657 504.031 152.413 496.88C194.767 433.232 266.179 401.397 329.097 417.36C338.265 419.682 347.151 422.999 355.597 427.252C377.372 438.282 395.685 455.1 408.523 475.86V475.86Z" stroke="#171717" stroke-width="3" stroke-linecap="round" stroke-linejoin="round"/>
<path d="M358.527 204.139L337.041 290.632L496.941 234.95L459.229 197.207L379.963 117.86L358.527 204.139Z" stroke="#171717" stroke-width="3" stroke-linecap="round" stroke-linejoin="round"/>
<path d="M553.819 333.219L542.012 379.698L656.507 411.776L743.76 436.221L754.027 402.675L798.489 257.358L588.157 197.987L579.299 232.882L553.819 333.219Z" stroke="#171717" stroke-width="3" stroke-linecap="round" stroke-linejoin="round"/>
<path d="M576.349 117.861L616.058 87.8095L584.214 40.1855L535.566 79.0225L576.349 117.861Z" stroke="#171717" stroke-width="3" stroke-linecap="round" stroke-linejoin="round"/>
<path d="M206.126 254.146L163.194 137.178L81.4961 219.809L206.126 254.146Z" stroke="#171717" stroke-width="3" stroke-linecap="round" stroke-linejoin="round"/>
<path d="M81.4961 460.182L117.05 425.489L60.1211 408.675L81.4961 460.182Z" stroke="#171717" stroke-width="3" stroke-linecap="round" stroke-linejoin="round"/>
<path d="M704.051 814.309L742.686 835.775L731.953 791.779L704.051 814.309Z" stroke="#171717" stroke-width="3" stroke-linecap="round" stroke-linejoin="round"/>
<path d="M408.523 475.861L470.114 418.334L579.572 613.099L616.058 678.024L476.479 768.419L390.696 823.969L335.896 737.537L276.687 644.133L258.707 615.785L344.531 535.627L408.523 475.861Z" stroke="#171717" stroke-width="3" stroke-linecap="round" stroke-linejoin="round"/>
<path d="M476.479 768.418C478.465 733.127 492.664 695.77 520.546 670.518C538.079 654.632 559.069 634.999 579.572 613.099C636.156 552.715 689.172 475.151 656.507 411.777C649.291 397.777 637.889 384.463 621.42 372.189C597.663 354.483 574.951 341.946 553.82 333.22C469.973 298.568 411.088 323.896 411.088 323.896C411.088 323.896 336.049 342.038 329.096 417.361C328.096 429.148 328.603 441.014 330.606 452.672C336.089 486.279 341.471 513.32 344.532 535.627C351.048 583.14 347.065 609.248 311.289 631.879C300.851 638.571 289.011 642.764 276.689 644.133C233.118 648.906 188.858 617.64 168.568 578.052C159.548 560.452 153.538 531.117 152.413 496.881C150.313 433.344 165.031 352.923 208.513 299.217C231.459 270.879 282.313 223.437 358.532 204.14C391.426 195.905 425.519 193.558 459.232 197.208C501.11 201.605 541.815 213.699 579.3 232.882C651.36 269.49 716.629 331.75 754.028 402.675C790.858 472.515 800.659 550.747 763.291 621.156C580.17 966.122 470.367 877.106 476.479 768.418Z" stroke="#171717" stroke-width="3" stroke-linecap="round" stroke-linejoin="round"/>
<path d="M91.0291 549.522C71.4181 592.878 72.8001 645.173 94.6711 687.433" stroke="#171717" stroke-width="3" stroke-linecap="round" stroke-linejoin="round"/>
<path d="M262.1 190.451C261.281 175.127 260.478 159.587 263.721 144.589C266.964 129.591 274.802 114.939 287.814 106.804C300.826 98.6693 319.451 98.7043 330.434 109.426C335.158 114.036 338.266 120.566 337.762 127.148C337.258 133.73 332.674 140.089 326.273 141.703C317.858 143.824 309.037 137.138 306.505 128.837C303.973 120.536 306.455 111.447 310.605 103.826C325.305 76.8313 362.549 64.9483 390.163 78.4453" stroke="#171717" stroke-width="3" stroke-linecap="round" stroke-linejoin="round"/>
<path d="M874.093 346.152C844.4 378.273 824.834 418.435 817.844 461.615C815.52 476.17 814.805 491.76 821.336 504.973C827.867 518.186 843.698 527.756 857.592 522.835C871.486 517.914 876.149 495.375 863.317 488.123C850.176 480.697 834.127 494.496 830.198 509.07C819.858 547.429 854.416 583.483 858.009 623.049C860.744 653.154 843.203 684.08 815.961 697.184" stroke="#171717" stroke-width="3" stroke-linecap="round" stroke-linejoin="round"/>
<path d="M178.16 784.173C175.793 794.609 175.818 805.445 178.233 815.869C180.648 826.294 185.39 836.038 192.104 844.37C198.818 852.702 207.331 859.407 217.004 863.983C226.677 868.559 237.26 870.887 247.96 870.793C258.96 870.693 270.769 867.459 277.413 858.693C284.057 849.927 282.452 834.865 272.364 830.483C261.122 825.601 248.764 836.441 244.825 848.047C237.445 869.768 248.025 895.256 267.004 908.147C285.983 921.038 311.457 922.17 332.986 914.247C352.375 907.109 368.95 893.36 388.73 887.39C420.505 877.801 457.877 891.956 475.325 920.19" stroke="#171717" stroke-width="3" stroke-linecap="round" stroke-linejoin="round"/>
<path d="M144.596 278.469L187.163 282.404" stroke="#171717" stroke-width="3" stroke-linecap="round" stroke-linejoin="round"/>
<path d="M167.489 263.444L162.124 304.938" stroke="#171717" stroke-width="3" stroke-linecap="round" stroke-linejoin="round"/>
<path d="M217.211 219.805L241.177 202.635" stroke="#171717" stroke-width="3" stroke-linecap="round" stroke-linejoin="round"/>
<path d="M217.211 199.058L237.242 223.024" stroke="#171717" stroke-width="3" stroke-linecap="round" stroke-linejoin="round"/>
<path d="M603.535 136.459L626.428 164.718" stroke="#171717" stroke-width="3" stroke-linecap="round" stroke-linejoin="round"/>
<path d="M598.884 158.278L629.29 137.531" stroke="#171717" stroke-width="3" stroke-linecap="round" stroke-linejoin="round"/>
<path d="M661.483 157.922L677.938 180.815" stroke="#171717" stroke-width="3" stroke-linecap="round" stroke-linejoin="round"/>
<path d="M658.264 177.595L687.596 156.49" stroke="#171717" stroke-width="3" stroke-linecap="round" stroke-linejoin="round"/>
<path d="M871.815 455.534L888.27 422.625" stroke="#171717" stroke-width="3" stroke-linecap="round" stroke-linejoin="round"/>
<path d="M866.092 428.348L900.432 451.957" stroke="#171717" stroke-width="3" stroke-linecap="round" stroke-linejoin="round"/>
<path d="M509.1 570L513.392 617.933" stroke="#171717" stroke-width="3" stroke-linecap="round" stroke-linejoin="round"/>
<path d="M474.045 534.944L486.922 637.964" stroke="#171717" stroke-width="3" stroke-linecap="round" stroke-linejoin="round"/>
<path d="M183.944 898.375L193.96 877.985" stroke="#171717" stroke-width="3" stroke-linecap="round" stroke-linejoin="round"/>
<path d="M174.645 881.205L203.619 894.082" stroke="#171717" stroke-width="3" stroke-linecap="round" stroke-linejoin="round"/>
<path d="M484.06 74.2266L492.818 91.9726L512.402 94.8176L498.231 108.631L501.577 128.136L484.06 118.927L466.544 128.136L469.889 108.631L455.719 94.8176L475.302 91.9726L484.06 74.2266Z" stroke="#171717" stroke-width="3" stroke-linecap="round" stroke-linejoin="round"/>
<g opacity="0.1">
<path d="M148.059 497.617C138.859 509.292 134.059 525.531 129.459 539.572C124.903 553.808 121.484 568.382 119.234 583.159C114.734 611.259 116.999 641.493 126.711 668.324C145.327 719.75 191.876 756.81 246.884 760.631C278.108 762.633 309.082 753.937 334.7 735.975C338.934 732.986 340.926 727.575 338.147 722.827C335.697 718.638 329.262 716.374 325 719.38C284.681 747.812 231.078 748.897 190.092 721.239C148.266 693.013 133.116 642.165 136.584 593.776C137.708 578.762 140.337 563.898 144.43 549.408C146.559 541.745 149.016 534.175 151.73 526.7C154.42 519.3 158.103 512.008 159.495 504.276C160.557 498.376 152.744 491.668 148.056 497.617H148.059Z" fill="#171717"/>
</g>
<g opacity="0.1">
<path d="M162.916 489.482C164.489 480.171 163.927 470.782 165.289 461.446C166.589 452.52 167.233 443.558 168.843 434.663C172.104 416.359 177.085 398.404 183.72 381.035C197.129 346.367 217.401 314.763 243.32 288.118C269.449 261.295 301.075 240.039 336.214 226.93C372.646 213.449 411.511 207.797 450.275 210.342C493.812 213.226 535.981 226.725 573.1 249.658C583.224 255.943 592.533 239.946 582.421 233.711C512.199 190.411 422.715 180.981 344.327 206.011C268.28 230.295 206.704 288.011 174.688 360.851C165.933 380.77 158.96 401.651 155.077 423.089C153 434.127 151.651 445.288 151.036 456.502C150.526 467.245 150.4 479.072 153.158 489.481C154.364 494.034 162.058 494.57 162.921 489.481L162.916 489.482Z" fill="#171717"/>
</g>
<g opacity="0.1">
<path d="M615.631 675.726C611.977 666.904 606.898 659.071 601.972 650.889C597.201 642.963 592.394 635.061 587.55 627.181C577.702 611.139 568 595.008 558.444 578.79C539.489 546.621 521.367 513.985 503.537 481.179C493.328 462.393 483.271 443.53 473.364 424.589C468.037 414.366 452.578 423.409 457.902 433.626C492.565 500.143 530.102 565.055 569.713 628.741C575.277 637.686 580.87 646.607 586.68 655.396C592.623 664.385 598.157 673.738 605.525 681.61C609.416 685.767 618.002 681.448 615.631 675.726V675.726Z" fill="#171717"/>
</g>
</g>
<defs>
<linearGradient id="paint0_linear_348_1426" x1="688.894" y1="197.982" x2="688.402" y2="401.56" gradientUnits="userSpaceOnUse">
<stop stop-color="#72DEFF"/>
<stop offset="1" stop-color="#1A9AEF"/>
</linearGradient>
<linearGradient id="paint1_linear_348_1426" x1="631.586" y1="402.677" x2="629.811" y2="863.096" gradientUnits="userSpaceOnUse">
<stop stop-color="#72DEFF"/>
<stop offset="1" stop-color="#1A9AEF"/>
</linearGradient>
<linearGradient id="paint2_linear_348_1426" x1="408.879" y1="117.86" x2="408.689" y2="203.669" gradientUnits="userSpaceOnUse">
<stop stop-color="#72DEFF"/>
<stop offset="1" stop-color="#1A9AEF"/>
</linearGradient>
<linearGradient id="paint3_linear_348_1426" x1="368.558" y1="417.36" x2="368.108" y2="534.981" gradientUnits="userSpaceOnUse">
<stop stop-color="#72DEFF"/>
<stop offset="1" stop-color="#1A9AEF"/>
</linearGradient>
<clipPath id="clip0_348_1426">
<rect width="844" height="884" fill="white" transform="translate(58 38)"/>
</clipPath>
</defs>
</svg>
