<svg width="952" height="225" viewBox="0 0 952 225" fill="none" xmlns="http://www.w3.org/2000/svg">
<path d="M224.312 151V136.812H232.25C240.792 136.812 247.188 134.375 251.438 129.5C255.729 124.625 257.875 117.417 257.875 107.875C257.875 97.4583 255.729 89.625 251.438 84.375C247.188 79.0833 240.792 76.4375 232.25 76.4375H224.562L223.062 62.25H232.25C259.75 62.25 273.5 77.4583 273.5 107.875C273.5 136.625 259.75 151 232.25 151H224.312ZM210.125 151V62.25H225.188V151H210.125ZM330.375 151V103.812C330.375 99.2292 328.896 96.9375 325.938 96.9375C322.396 96.9375 320.625 99.625 320.625 105L316.125 93H321.562C321.854 90.2083 322.938 87.9375 324.812 86.1875C326.729 84.3958 329.354 83.5 332.688 83.5C337.188 83.5 340.458 84.7292 342.5 87.1875C344.583 89.6458 345.625 93.625 345.625 99.125V151H330.375ZM283.375 151V84.75H297.188L298.688 98.75V151H283.375ZM308.562 151V102.562C308.562 98.8125 307.062 96.9375 304.062 96.9375C300.479 96.9375 298.688 99.625 298.688 105L294.812 93H299.375C300.125 86.6667 303.646 83.5 309.938 83.5C313.271 83.5 315.875 84.6875 317.75 87.0625C319.667 89.4375 320.625 93.0417 320.625 97.875V151H308.562ZM356.062 181L355.438 167.438L366.438 166.188C370.521 165.688 374.021 164.583 376.938 162.875C379.854 161.167 382.354 158.625 384.438 155.25C386.521 151.875 388.333 147.458 389.875 142L406.062 84.75H422.312L403.5 145.125C401 153.083 398.146 159.479 394.938 164.312C391.771 169.146 388 172.771 383.625 175.188C379.25 177.604 374.021 179.125 367.938 179.75L356.062 181ZM378.688 151L354.812 84.75H371.062L389.562 138.375H392.188V151H378.688ZM459.375 152.25C454.333 152.25 449.938 152.083 446.188 151.75C442.438 151.458 439.083 151 436.125 150.375L437.938 135.875C442.812 136.542 447 137.042 450.5 137.375C454 137.708 456.958 137.875 459.375 137.875C465.458 137.875 469.854 137.375 472.562 136.375C475.312 135.375 476.688 133.792 476.688 131.625C476.688 130.25 476.292 129.188 475.5 128.438C474.708 127.688 473.458 127.083 471.75 126.625L452.688 121.312C447.438 119.854 443.521 117.854 440.938 115.312C438.396 112.729 437.125 109.104 437.125 104.438C437.125 97.2708 440.021 92 445.812 88.625C451.646 85.2083 460.708 83.5 473 83.5C476 83.5 478.958 83.6042 481.875 83.8125C484.833 84.0208 487.917 84.3333 491.125 84.75L489.5 98.75C485.875 98.4167 482.688 98.1875 479.938 98.0625C477.229 97.9375 474.792 97.875 472.625 97.875C465.75 97.875 460.75 98.3542 457.625 99.3125C454.542 100.271 453 101.812 453 103.938C453 105.354 453.458 106.396 454.375 107.062C455.292 107.729 456.708 108.312 458.625 108.812L474.625 113.125C480.833 114.708 485.417 116.938 488.375 119.812C491.375 122.688 492.875 126.604 492.875 131.562C492.875 138.646 490.146 143.875 484.688 147.25C479.271 150.583 470.833 152.25 459.375 152.25ZM552.75 152.25C541.875 152.25 534.021 150.042 529.188 145.625C524.354 141.208 521.938 134.146 521.938 124.438V114.75H537.312V123.188C537.312 128.312 538.604 132.042 541.188 134.375C543.812 136.708 548.083 137.875 554 137.875C555.958 137.875 558.062 137.771 560.312 137.562C562.562 137.312 565.125 137 568 136.625L569.5 150.75C566.708 151.25 563.958 151.625 561.25 151.875C558.583 152.125 555.75 152.25 552.75 152.25ZM521.938 119.125V64.75H537.312V119.125H521.938ZM505.75 98.75V84.75H567V98.75H505.75ZM611.188 151V88.5H626.562V151H611.188ZM586.375 151V137H612.438V151H586.375ZM625.312 151V137H646.5V151H625.312ZM590.125 98.75V84.75H626.562V98.75H590.125ZM618.25 75.1875C615.292 75.1875 612.854 74.2292 610.938 72.3125C609.021 70.3958 608.062 67.9583 608.062 65C608.062 62.0417 609.021 59.6042 610.938 57.6875C612.854 55.7708 615.292 54.8125 618.25 54.8125C621.208 54.8125 623.646 55.7708 625.562 57.6875C627.479 59.6042 628.438 62.0417 628.438 65C628.438 67.9583 627.479 70.3958 625.562 72.3125C623.646 74.2292 621.208 75.1875 618.25 75.1875ZM676.062 151V90.375C676.062 67.4583 686.875 56 708.5 56C713.458 56 718.25 56.4167 722.875 57.25L721.375 71.25C718.625 70.9167 716.208 70.6875 714.125 70.5625C712.042 70.4375 710.042 70.375 708.125 70.375C697 70.375 691.438 76.8333 691.438 89.75V151H676.062ZM655.625 111.875V98.5H718.125V111.875H655.625ZM761.188 151V88.5H776.562V151H761.188ZM736.375 151V137H762.438V151H736.375ZM775.312 151V137H796.5V151H775.312ZM740.125 98.75V84.75H776.562V98.75H740.125ZM768.25 75.1875C765.292 75.1875 762.854 74.2292 760.938 72.3125C759.021 70.3958 758.062 67.9583 758.062 65C758.062 62.0417 759.021 59.6042 760.938 57.6875C762.854 55.7708 765.292 54.8125 768.25 54.8125C771.208 54.8125 773.646 55.7708 775.562 57.6875C777.479 59.6042 778.438 62.0417 778.438 65C778.438 67.9583 777.479 70.3958 775.562 72.3125C773.646 74.2292 771.208 75.1875 768.25 75.1875ZM844.938 152.25C833.562 152.25 824.771 149.292 818.562 143.375C812.354 137.417 809.25 128.875 809.25 117.75C809.25 106.917 811.875 98.5 817.125 92.5C822.417 86.5 829.854 83.5 839.438 83.5C848.688 83.5 855.833 86.25 860.875 91.75C865.958 97.25 868.5 105.229 868.5 115.688C868.5 118.729 868.375 121.583 868.125 124.25H820.375V113.125H853.75C853.75 108.083 852.5 104.208 850 101.5C847.5 98.7917 844.021 97.4375 839.562 97.4375C834.688 97.4375 830.896 99.1458 828.188 102.562C825.479 105.979 824.125 110.833 824.125 117.125C824.125 123.917 826.062 129.104 829.938 132.688C833.812 136.229 839.312 138 846.438 138C849.354 138 852.208 137.854 855 137.562C857.833 137.229 860.708 136.792 863.625 136.25L865.25 150.5C861.167 151.25 857.417 151.729 854 151.938C850.583 152.146 847.562 152.25 844.938 152.25ZM908.562 152.25C900.146 152.25 893.667 149.333 889.125 143.5C884.625 137.667 882.375 129.229 882.375 118.188C882.375 106.979 884.625 98.3958 889.125 92.4375C893.667 86.4792 900.167 83.5 908.625 83.5C913.5 83.5 917.312 84.625 920.062 86.875C922.812 89.125 924.521 92.4167 925.188 96.75H930.562L926.688 117C926.688 110.417 925.5 105.542 923.125 102.375C920.75 99.1667 917.229 97.5625 912.562 97.5625C907.854 97.5625 904.25 99.3333 901.75 102.875C899.25 106.417 898 111.521 898 118.188C898 124.771 899.229 129.75 901.688 133.125C904.146 136.5 907.771 138.188 912.562 138.188C917.562 138.188 921.167 136.604 923.375 133.438C925.583 130.271 926.688 125.396 926.688 118.812L931.188 139H925.375C924.792 143.333 923.042 146.625 920.125 148.875C917.208 151.125 913.354 152.25 908.562 152.25ZM928.688 151.625L926.688 138.562V57.25H942.125V151L928.688 151.625Z" fill="black"/>
<path d="M78 164.5L78 131.768C78 120.846 71.0444 111.137 60.703 107.623L3.38763e-06 87L1.95687e-06 119.732C1.47946e-06 130.654 6.95561 140.363 17.297 143.877L78 164.5Z" fill="#D23824"/>
<path d="M0 106.75L-1.43076e-06 74.018C-1.90817e-06 63.0961 6.95561 53.3869 17.297 49.8734L78 29.25L78 61.982C78 72.9039 71.0444 82.6131 60.703 86.1266L0 106.75Z" fill="#FF462E"/>
<path d="M162.25 145.5L162.25 112.768C162.25 101.846 155.294 92.1369 144.953 88.6234L84.25 68L84.25 100.732C84.25 111.654 91.2056 121.363 101.547 124.877L162.25 145.5Z" fill="#D23824"/>
<path d="M84.25 203.25L84.25 170.518C84.25 159.596 91.2056 149.887 101.547 146.373L162.25 125.75L162.25 158.482C162.25 169.404 155.294 179.113 144.953 182.627L84.25 203.25Z" fill="#FF462E"/>
<path d="M95 0L120 0L69 224.34H44L95 0Z" fill="black"/>
</svg>
