<svg width="163" height="225" viewBox="0 0 163 225" fill="none" xmlns="http://www.w3.org/2000/svg">
<path d="M78 164.5L78 131.768C78 120.846 71.0444 111.137 60.703 107.623L3.38763e-06 87L1.95687e-06 119.732C1.47946e-06 130.654 6.95561 140.363 17.297 143.877L78 164.5Z" fill="#D23824"/>
<path d="M0 106.75L-1.43076e-06 74.018C-1.90817e-06 63.0961 6.95561 53.3869 17.297 49.8734L78 29.25L78 61.982C78 72.9039 71.0444 82.6131 60.703 86.1266L0 106.75Z" fill="#FF462E"/>
<path d="M162.25 145.5L162.25 112.768C162.25 101.846 155.294 92.1369 144.953 88.6234L84.25 68L84.25 100.732C84.25 111.654 91.2056 121.363 101.547 124.877L162.25 145.5Z" fill="#D23824"/>
<path d="M84.25 203.25L84.25 170.518C84.25 159.596 91.2056 149.887 101.547 146.373L162.25 125.75L162.25 158.482C162.25 169.404 155.294 179.113 144.953 182.627L84.25 203.25Z" fill="#FF462E"/>
<path d="M95 0L120 0L69 224.34H44L95 0Z" fill="black"/>
</svg>
